<svg width="50" height="50" viewBox="0 0 50 50" fill="none" xmlns="http://www.w3.org/2000/svg">
<g clip-path="url(#clip0_146_1041)">
<path d="M25 50C38.8071 50 50 38.8071 50 25C50 11.1929 38.8071 0 25 0C11.1929 0 0 11.1929 0 25C0 38.8071 11.1929 50 25 50Z" fill="#9873FF"/>
<path d="M11.8239 24.0893H9.88155C9.85566 23.8899 9.80256 23.7099 9.72228 23.5493C9.64199 23.3888 9.53581 23.2515 9.40373 23.1376C9.27164 23.0236 9.11496 22.9368 8.93367 22.8773C8.75497 22.8151 8.55684 22.784 8.3393 22.784C7.95341 22.784 7.62061 22.8786 7.34091 23.0676C7.06379 23.2567 6.85013 23.5299 6.69992 23.8873C6.5523 24.2447 6.47849 24.6772 6.47849 25.1848C6.47849 25.7132 6.55359 26.156 6.70381 26.5134C6.85661 26.8682 7.07027 27.1363 7.34479 27.3176C7.62191 27.4963 7.94952 27.5856 8.32764 27.5856C8.54001 27.5856 8.73295 27.5584 8.90647 27.504C9.08258 27.4497 9.23668 27.3707 9.36876 27.2671C9.50344 27.1609 9.6135 27.0327 9.69897 26.8825C9.78702 26.7297 9.84789 26.5575 9.88155 26.3658L11.8239 26.3775C11.7903 26.7297 11.688 27.0767 11.517 27.4186C11.3487 27.7604 11.1169 28.0725 10.8217 28.3548C10.5264 28.6345 10.1664 28.8572 9.7417 29.023C9.31956 29.1887 8.83525 29.2716 8.28879 29.2716C7.56882 29.2716 6.92394 29.1136 6.35418 28.7977C5.787 28.4791 5.33895 28.0155 5.01004 27.4069C4.68113 26.7983 4.51668 26.0576 4.51668 25.1848C4.51668 24.3095 4.68372 23.5675 5.01781 22.9589C5.3519 22.3502 5.80383 21.8879 6.3736 21.572C6.94337 21.256 7.58177 21.098 8.28879 21.098C8.77051 21.098 9.21596 21.1654 9.62516 21.3001C10.0344 21.4321 10.3943 21.6264 10.7051 21.8828C11.0159 22.1366 11.2684 22.4487 11.4627 22.819C11.6569 23.1893 11.7773 23.6128 11.8239 24.0893ZM20.1461 24.0893H18.2037C18.1778 23.8899 18.1247 23.7099 18.0444 23.5493C17.9642 23.3888 17.858 23.2515 17.7259 23.1376C17.5938 23.0236 17.4371 22.9368 17.2558 22.8773C17.0771 22.8151 16.879 22.784 16.6615 22.784C16.2756 22.784 15.9428 22.8786 15.6631 23.0676C15.386 23.2567 15.1723 23.5299 15.0221 23.8873C14.8745 24.2447 14.8007 24.6772 14.8007 25.1848C14.8007 25.7132 14.8758 26.156 15.026 26.5134C15.1788 26.8682 15.3924 27.1363 15.667 27.3176C15.9441 27.4963 16.2717 27.5856 16.6498 27.5856C16.8622 27.5856 17.0551 27.5584 17.2286 27.504C17.4047 27.4497 17.5588 27.3707 17.6909 27.2671C17.8256 27.1609 17.9357 27.0327 18.0211 26.8825C18.1092 26.7297 18.1701 26.5575 18.2037 26.3658L20.1461 26.3775C20.1124 26.7297 20.0101 27.0767 19.8392 27.4186C19.6709 27.7604 19.4391 28.0725 19.1438 28.3548C18.8486 28.6345 18.4886 28.8572 18.0639 29.023C17.6417 29.1887 17.1574 29.2716 16.611 29.2716C15.891 29.2716 15.2461 29.1136 14.6763 28.7977C14.1092 28.4791 13.6611 28.0155 13.3322 27.4069C13.0033 26.7983 12.8388 26.0576 12.8388 25.1848C12.8388 24.3095 13.0059 23.5675 13.34 22.9589C13.6741 22.3502 14.126 21.8879 14.6958 21.572C15.2655 21.256 15.9039 21.098 16.611 21.098C17.0927 21.098 17.5381 21.1654 17.9473 21.3001C18.3565 21.4321 18.7165 21.6264 19.0273 21.8828C19.3381 22.1366 19.5906 22.4487 19.7848 22.819C19.9791 23.1893 20.0995 23.6128 20.1461 24.0893ZM24.1872 29.1628H21.2465V21.2068H24.1834C24.994 21.2068 25.692 21.3661 26.2773 21.6846C26.8652 22.0006 27.3184 22.4564 27.6369 23.0521C27.9555 23.6452 28.1148 24.3548 28.1148 25.1809C28.1148 26.0097 27.9555 26.7219 27.6369 27.3176C27.321 27.9132 26.869 28.3703 26.2811 28.6889C25.6932 29.0049 24.9953 29.1628 24.1872 29.1628ZM23.1694 27.5235H24.1134C24.5589 27.5235 24.9357 27.4484 25.2439 27.2981C25.5547 27.1453 25.7891 26.898 25.9471 26.5562C26.1076 26.2117 26.1879 25.7533 26.1879 25.1809C26.1879 24.6086 26.1076 24.1528 25.9471 23.8135C25.7865 23.4716 25.5495 23.2256 25.2361 23.0754C24.9254 22.9226 24.5421 22.8462 24.0862 22.8462H23.1694V27.5235ZM29.2375 21.2068H31.6188L33.6389 26.1327H33.7321L35.7522 21.2068H38.1336V29.1628H36.2611V24.2758H36.1951L34.2838 29.1123H33.0873L31.176 24.2486H31.1099V29.1628H29.2375V21.2068ZM43.6335 23.5921C43.6076 23.3072 43.4923 23.0858 43.2877 22.9278C43.0857 22.7672 42.797 22.6869 42.4214 22.6869C42.1728 22.6869 41.9656 22.7193 41.7999 22.784C41.6341 22.8488 41.5098 22.9381 41.4269 23.0521C41.344 23.1634 41.3013 23.2916 41.2987 23.4367C41.2935 23.5558 41.3169 23.6607 41.3686 23.7513C41.423 23.842 41.5007 23.9223 41.6017 23.9922C41.7053 24.0595 41.8296 24.1191 41.9747 24.1709C42.1197 24.2227 42.2829 24.268 42.4642 24.3069L43.1479 24.4623C43.5415 24.5477 43.8886 24.6617 44.189 24.8041C44.492 24.9466 44.7458 25.1162 44.9504 25.313C45.1576 25.5099 45.3143 25.7365 45.4205 25.9929C45.5267 26.2493 45.581 26.5367 45.5836 26.8553C45.581 27.3577 45.4541 27.7889 45.2029 28.1489C44.9517 28.5089 44.5904 28.7847 44.1191 28.9764C43.6503 29.168 43.0844 29.2638 42.4214 29.2638C41.7558 29.2638 41.1757 29.1641 40.681 28.9647C40.1864 28.7653 39.8018 28.4623 39.5273 28.0557C39.2527 27.6491 39.1116 27.135 39.1038 26.5134H40.9452C40.9607 26.7698 41.0294 26.9835 41.1511 27.1544C41.2728 27.3253 41.4399 27.4548 41.6522 27.5429C41.8672 27.6309 42.1158 27.675 42.3981 27.675C42.6571 27.675 42.8772 27.64 43.0585 27.5701C43.2424 27.5002 43.3836 27.403 43.482 27.2787C43.5804 27.1544 43.6309 27.012 43.6335 26.8514C43.6309 26.7012 43.5843 26.573 43.4936 26.4668C43.403 26.358 43.2631 26.2648 43.0741 26.1871C42.8876 26.1068 42.6493 26.033 42.3593 25.9657L41.5279 25.7714C40.839 25.6134 40.2965 25.3583 39.9002 25.0061C39.504 24.6513 39.3071 24.1722 39.3097 23.5688C39.3071 23.0767 39.4392 22.6455 39.706 22.2751C39.9727 21.9048 40.3418 21.616 40.8131 21.4088C41.2845 21.2016 41.8219 21.098 42.4253 21.098C43.0417 21.098 43.5765 21.2029 44.0297 21.4127C44.4855 21.6199 44.8391 21.9113 45.0903 22.2868C45.3415 22.6623 45.4697 23.0974 45.4749 23.5921H43.6335Z" fill="white"/>
</g>
<defs>
<clipPath id="clip0_146_1041">
<rect width="50" height="50" fill="white"/>
</clipPath>
</defs>
</svg>
