<svg width="10" height="6" viewBox="0 0 10 6" fill="none" xmlns="http://www.w3.org/2000/svg">
<path d="M2.62891 2.83203H4.19141V3.52734H2.62891V5.10547H1.93359V3.52734H0.375V2.83203H1.93359V1.23828H2.62891V2.83203ZM9.01172 4.74609H8.23828V6H7.33203V4.74609H4.73438V4.05078L7.34375 0.273438H8.23828V3.98438H9.01172V4.74609ZM7.33203 3.98438V2.56641C7.33203 2.44922 7.33333 2.33073 7.33594 2.21094C7.34115 2.08854 7.34635 1.97135 7.35156 1.85938C7.35677 1.7474 7.36198 1.64453 7.36719 1.55078C7.3724 1.45443 7.3763 1.375 7.37891 1.3125H7.34766C7.29818 1.41667 7.24349 1.52344 7.18359 1.63281C7.1237 1.73958 7.0599 1.84375 6.99219 1.94531L5.58594 3.98438H7.33203Z" fill="#333333"/>
</svg>
