<svg width="16" height="16" viewBox="0 0 16 16" fill="none" xmlns="http://www.w3.org/2000/svg">
<circle cx="8" cy="8" r="7.5" stroke="#9873FF"/>
<path d="M5.62891 7.83203H7.19141V8.52734H5.62891V10.1055H4.93359V8.52734H3.375V7.83203H4.93359V6.23828H5.62891V7.83203ZM11.5859 6.59375C11.5859 6.85156 11.5339 7.07552 11.4297 7.26562C11.3255 7.45573 11.1823 7.61198 11 7.73438C10.8203 7.85417 10.612 7.9401 10.375 7.99219V8.01953C10.8307 8.07682 11.1745 8.22005 11.4062 8.44922C11.6406 8.67839 11.7578 8.98177 11.7578 9.35938C11.7578 9.6901 11.6784 9.98568 11.5195 10.2461C11.3607 10.5039 11.1172 10.707 10.7891 10.8555C10.4609 11.0039 10.0391 11.0781 9.52344 11.0781C9.21354 11.0781 8.92578 11.0534 8.66016 11.0039C8.39714 10.9544 8.14714 10.875 7.91016 10.7656V9.94922C8.15234 10.069 8.41016 10.1615 8.68359 10.2266C8.95703 10.2917 9.21615 10.3242 9.46094 10.3242C9.9375 10.3242 10.2773 10.2357 10.4805 10.0586C10.6836 9.87891 10.7852 9.63151 10.7852 9.31641C10.7852 9.11328 10.7318 8.94661 10.625 8.81641C10.5208 8.6862 10.3581 8.58854 10.1367 8.52344C9.91797 8.45833 9.63542 8.42578 9.28906 8.42578H8.78516V7.6875H9.29297C9.6237 7.6875 9.88932 7.64844 10.0898 7.57031C10.2904 7.48958 10.4349 7.37891 10.5234 7.23828C10.6146 7.09766 10.6602 6.93359 10.6602 6.74609C10.6602 6.5013 10.5807 6.3112 10.4219 6.17578C10.263 6.03776 10.0273 5.96875 9.71484 5.96875C9.52214 5.96875 9.34635 5.99089 9.1875 6.03516C9.03125 6.07943 8.88672 6.13542 8.75391 6.20312C8.62109 6.27083 8.49479 6.34375 8.375 6.42188L7.93359 5.78516C8.14974 5.6237 8.40755 5.48698 8.70703 5.375C9.00651 5.26302 9.35547 5.20703 9.75391 5.20703C10.3398 5.20703 10.7917 5.33333 11.1094 5.58594C11.4271 5.83594 11.5859 6.17188 11.5859 6.59375Z" fill="#333333"/>
</svg>
