<svg width="9" height="7" viewBox="0 0 9 7" fill="none" xmlns="http://www.w3.org/2000/svg">
<path d="M2.62891 2.83203H4.19141V3.52734H2.62891V5.10547H1.93359V3.52734H0.375V2.83203H1.93359V1.23828H2.62891V2.83203ZM4.94531 3.56641C4.94531 3.23047 4.96875 2.89974 5.01562 2.57422C5.0651 2.2487 5.14844 1.94401 5.26562 1.66016C5.38281 1.3763 5.54427 1.1263 5.75 0.910156C5.95833 0.69401 6.22005 0.52474 6.53516 0.402344C6.85026 0.277344 7.22917 0.214844 7.67188 0.214844C7.78646 0.214844 7.91536 0.220052 8.05859 0.230469C8.20182 0.240885 8.32031 0.257812 8.41406 0.28125V1.04297C8.3125 1.01432 8.20052 0.992188 8.07812 0.976562C7.95833 0.960938 7.83854 0.953125 7.71875 0.953125C7.23958 0.953125 6.86589 1.04427 6.59766 1.22656C6.32943 1.40625 6.13802 1.65365 6.02344 1.96875C5.90885 2.28125 5.84245 2.63932 5.82422 3.04297H5.87109C5.94922 2.91276 6.04688 2.79688 6.16406 2.69531C6.28125 2.59375 6.42448 2.51302 6.59375 2.45312C6.76302 2.39062 6.95964 2.35938 7.18359 2.35938C7.51693 2.35938 7.80729 2.42969 8.05469 2.57031C8.30208 2.70833 8.49219 2.90885 8.625 3.17188C8.76042 3.4349 8.82812 3.75391 8.82812 4.12891C8.82812 4.53255 8.7513 4.88021 8.59766 5.17188C8.44661 5.46354 8.23047 5.6875 7.94922 5.84375C7.67057 6 7.33854 6.07812 6.95312 6.07812C6.66927 6.07812 6.40495 6.02604 6.16016 5.92188C5.91797 5.81771 5.70573 5.66146 5.52344 5.45312C5.34115 5.24479 5.19922 4.98438 5.09766 4.67188C4.99609 4.35677 4.94531 3.98828 4.94531 3.56641ZM6.9375 5.32031C7.23438 5.32031 7.47266 5.22396 7.65234 5.03125C7.83464 4.83594 7.92578 4.53776 7.92578 4.13672C7.92578 3.8112 7.84505 3.55339 7.68359 3.36328C7.52474 3.17318 7.28516 3.07812 6.96484 3.07812C6.74609 3.07812 6.55469 3.125 6.39062 3.21875C6.22656 3.3125 6.09896 3.43099 6.00781 3.57422C5.91927 3.71745 5.875 3.86328 5.875 4.01172C5.875 4.16276 5.89714 4.3151 5.94141 4.46875C5.98568 4.6224 6.05208 4.76432 6.14062 4.89453C6.22917 5.02214 6.33984 5.125 6.47266 5.20312C6.60547 5.28125 6.76042 5.32031 6.9375 5.32031Z" fill="#333333"/>
</svg>
