<svg width="16" height="16" viewBox="0 0 16 16" fill="none" xmlns="http://www.w3.org/2000/svg">
<circle cx="8" cy="8" r="7.5" stroke="#9873FF"/>
<path d="M5.62891 7.83203H7.19141V8.52734H5.62891V10.1055H4.93359V8.52734H3.375V7.83203H4.93359V6.23828H5.62891V7.83203ZM12.0117 9.74609H11.2383V11H10.332V9.74609H7.73438V9.05078L10.3438 5.27344H11.2383V8.98438H12.0117V9.74609ZM10.332 8.98438V7.56641C10.332 7.44922 10.3333 7.33073 10.3359 7.21094C10.3411 7.08854 10.3464 6.97135 10.3516 6.85938C10.3568 6.7474 10.362 6.64453 10.3672 6.55078C10.3724 6.45443 10.3763 6.375 10.3789 6.3125H10.3477C10.2982 6.41667 10.2435 6.52344 10.1836 6.63281C10.1237 6.73958 10.0599 6.84375 9.99219 6.94531L8.58594 8.98438H10.332Z" fill="#333333"/>
</svg>
