<svg width="16" height="16" viewBox="0 0 16 16" fill="none" xmlns="http://www.w3.org/2000/svg">
<circle cx="8" cy="8" r="7.5" stroke="#9873FF"/>
<path d="M5.62891 7.83203H7.19141V8.52734H5.62891V10.1055H4.93359V8.52734H3.375V7.83203H4.93359V6.23828H5.62891V7.83203ZM10.6367 11H9.71484V7.32422C9.71484 7.20182 9.71615 7.07943 9.71875 6.95703C9.72135 6.83464 9.72396 6.71484 9.72656 6.59766C9.73177 6.48047 9.73828 6.36849 9.74609 6.26172C9.69141 6.32161 9.6237 6.38672 9.54297 6.45703C9.46484 6.52734 9.38151 6.60026 9.29297 6.67578L8.63672 7.19922L8.17578 6.61719L9.87109 5.28906H10.6367V11Z" fill="#333333"/>
</svg>
