<svg width="16" height="16" viewBox="0 0 16 16" fill="none" xmlns="http://www.w3.org/2000/svg">
<circle cx="8" cy="8" r="7.5" stroke="#9873FF"/>
<path d="M5.62891 7.83203H7.19141V8.52734H5.62891V10.1055H4.93359V8.52734H3.375V7.83203H4.93359V6.23828H5.62891V7.83203ZM11.8047 11H7.9375V10.3086L9.41797 8.80859C9.70443 8.51693 9.9401 8.26562 10.125 8.05469C10.3099 7.84115 10.4466 7.63932 10.5352 7.44922C10.6263 7.25911 10.6719 7.05208 10.6719 6.82812C10.6719 6.55208 10.5924 6.34375 10.4336 6.20312C10.2747 6.0599 10.0651 5.98828 9.80469 5.98828C9.55729 5.98828 9.32812 6.03776 9.11719 6.13672C8.90885 6.23307 8.69271 6.37109 8.46875 6.55078L7.96484 5.94531C8.1237 5.8099 8.29297 5.6862 8.47266 5.57422C8.65495 5.46224 8.85807 5.3737 9.08203 5.30859C9.30599 5.24089 9.5612 5.20703 9.84766 5.20703C10.2096 5.20703 10.5221 5.27214 10.7852 5.40234C11.0482 5.52995 11.25 5.70833 11.3906 5.9375C11.5339 6.16667 11.6055 6.43359 11.6055 6.73828C11.6055 7.04557 11.5443 7.32943 11.4219 7.58984C11.2995 7.85026 11.125 8.10807 10.8984 8.36328C10.6719 8.61589 10.4023 8.89062 10.0898 9.1875L9.10156 10.1523V10.1953H11.8047V11Z" fill="#333333"/>
</svg>
