<svg width="9" height="7" viewBox="0 0 9 7" fill="none" xmlns="http://www.w3.org/2000/svg">
<path d="M2.62891 2.83203H4.19141V3.52734H2.62891V5.10547H1.93359V3.52734H0.375V2.83203H1.93359V1.23828H2.62891V2.83203ZM8.58594 1.59375C8.58594 1.85156 8.53385 2.07552 8.42969 2.26562C8.32552 2.45573 8.18229 2.61198 8 2.73438C7.82031 2.85417 7.61198 2.9401 7.375 2.99219V3.01953C7.83073 3.07682 8.17448 3.22005 8.40625 3.44922C8.64062 3.67839 8.75781 3.98177 8.75781 4.35938C8.75781 4.6901 8.67839 4.98568 8.51953 5.24609C8.36068 5.50391 8.11719 5.70703 7.78906 5.85547C7.46094 6.00391 7.03906 6.07812 6.52344 6.07812C6.21354 6.07812 5.92578 6.05339 5.66016 6.00391C5.39714 5.95443 5.14714 5.875 4.91016 5.76562V4.94922C5.15234 5.06901 5.41016 5.16146 5.68359 5.22656C5.95703 5.29167 6.21615 5.32422 6.46094 5.32422C6.9375 5.32422 7.27734 5.23568 7.48047 5.05859C7.68359 4.87891 7.78516 4.63151 7.78516 4.31641C7.78516 4.11328 7.73177 3.94661 7.625 3.81641C7.52083 3.6862 7.35807 3.58854 7.13672 3.52344C6.91797 3.45833 6.63542 3.42578 6.28906 3.42578H5.78516V2.6875H6.29297C6.6237 2.6875 6.88932 2.64844 7.08984 2.57031C7.29036 2.48958 7.4349 2.37891 7.52344 2.23828C7.61458 2.09766 7.66016 1.93359 7.66016 1.74609C7.66016 1.5013 7.58073 1.3112 7.42188 1.17578C7.26302 1.03776 7.02734 0.96875 6.71484 0.96875C6.52214 0.96875 6.34635 0.990885 6.1875 1.03516C6.03125 1.07943 5.88672 1.13542 5.75391 1.20312C5.62109 1.27083 5.49479 1.34375 5.375 1.42188L4.93359 0.785156C5.14974 0.623698 5.40755 0.486979 5.70703 0.375C6.00651 0.263021 6.35547 0.207031 6.75391 0.207031C7.33984 0.207031 7.79167 0.333333 8.10938 0.585938C8.42708 0.835938 8.58594 1.17188 8.58594 1.59375Z" fill="#333333"/>
</svg>
