<svg width="9" height="7" viewBox="0 0 9 7" fill="none" xmlns="http://www.w3.org/2000/svg">
<path d="M2.62891 2.83203H4.19141V3.52734H2.62891V5.10547H1.93359V3.52734H0.375V2.83203H1.93359V1.23828H2.62891V2.83203ZM6.87891 2.42969C7.24609 2.42969 7.56901 2.49609 7.84766 2.62891C8.12891 2.75911 8.34766 2.95182 8.50391 3.20703C8.66016 3.45964 8.73828 3.76953 8.73828 4.13672C8.73828 4.53776 8.65365 4.88411 8.48438 5.17578C8.3151 5.46484 8.06641 5.6875 7.73828 5.84375C7.41016 6 7.01042 6.07812 6.53906 6.07812C6.23958 6.07812 5.95964 6.05208 5.69922 6C5.44141 5.94792 5.21875 5.86979 5.03125 5.76562V4.9375C5.22656 5.04688 5.46094 5.13672 5.73438 5.20703C6.00781 5.27474 6.26953 5.30859 6.51953 5.30859C6.78516 5.30859 7.01302 5.26953 7.20312 5.19141C7.39323 5.11328 7.53906 4.99349 7.64062 4.83203C7.74479 4.67057 7.79688 4.46615 7.79688 4.21875C7.79688 3.89062 7.69141 3.63802 7.48047 3.46094C7.27214 3.28125 6.94531 3.19141 6.5 3.19141C6.34375 3.19141 6.17708 3.20573 6 3.23438C5.82552 3.26042 5.67969 3.28906 5.5625 3.32031L5.16016 3.08203L5.375 0.289062H8.34375V1.09766H6.18359L6.05859 2.51953C6.15234 2.4987 6.26432 2.47917 6.39453 2.46094C6.52474 2.4401 6.6862 2.42969 6.87891 2.42969Z" fill="#333333"/>
</svg>
