<svg width="16" height="16" viewBox="0 0 16 16" fill="none" xmlns="http://www.w3.org/2000/svg">
<circle cx="8" cy="8" r="7.5" stroke="#9873FF"/>
<path d="M5.62891 7.83203H7.19141V8.52734H5.62891V10.1055H4.93359V8.52734H3.375V7.83203H4.93359V6.23828H5.62891V7.83203ZM7.94531 8.56641C7.94531 8.23047 7.96875 7.89974 8.01562 7.57422C8.0651 7.2487 8.14844 6.94401 8.26562 6.66016C8.38281 6.3763 8.54427 6.1263 8.75 5.91016C8.95833 5.69401 9.22005 5.52474 9.53516 5.40234C9.85026 5.27734 10.2292 5.21484 10.6719 5.21484C10.7865 5.21484 10.9154 5.22005 11.0586 5.23047C11.2018 5.24089 11.3203 5.25781 11.4141 5.28125V6.04297C11.3125 6.01432 11.2005 5.99219 11.0781 5.97656C10.9583 5.96094 10.8385 5.95312 10.7188 5.95312C10.2396 5.95312 9.86589 6.04427 9.59766 6.22656C9.32943 6.40625 9.13802 6.65365 9.02344 6.96875C8.90885 7.28125 8.84245 7.63932 8.82422 8.04297H8.87109C8.94922 7.91276 9.04688 7.79688 9.16406 7.69531C9.28125 7.59375 9.42448 7.51302 9.59375 7.45312C9.76302 7.39062 9.95964 7.35938 10.1836 7.35938C10.5169 7.35938 10.8073 7.42969 11.0547 7.57031C11.3021 7.70833 11.4922 7.90885 11.625 8.17188C11.7604 8.4349 11.8281 8.75391 11.8281 9.12891C11.8281 9.53255 11.7513 9.88021 11.5977 10.1719C11.4466 10.4635 11.2305 10.6875 10.9492 10.8438C10.6706 11 10.3385 11.0781 9.95312 11.0781C9.66927 11.0781 9.40495 11.026 9.16016 10.9219C8.91797 10.8177 8.70573 10.6615 8.52344 10.4531C8.34115 10.2448 8.19922 9.98438 8.09766 9.67188C7.99609 9.35677 7.94531 8.98828 7.94531 8.56641ZM9.9375 10.3203C10.2344 10.3203 10.4727 10.224 10.6523 10.0312C10.8346 9.83594 10.9258 9.53776 10.9258 9.13672C10.9258 8.8112 10.8451 8.55339 10.6836 8.36328C10.5247 8.17318 10.2852 8.07812 9.96484 8.07812C9.74609 8.07812 9.55469 8.125 9.39062 8.21875C9.22656 8.3125 9.09896 8.43099 9.00781 8.57422C8.91927 8.71745 8.875 8.86328 8.875 9.01172C8.875 9.16276 8.89714 9.3151 8.94141 9.46875C8.98568 9.6224 9.05208 9.76432 9.14062 9.89453C9.22917 10.0221 9.33984 10.125 9.47266 10.2031C9.60547 10.2812 9.76042 10.3203 9.9375 10.3203Z" fill="#333333"/>
</svg>
