<svg width="9" height="6" viewBox="0 0 9 6" fill="none" xmlns="http://www.w3.org/2000/svg">
<path d="M2.62891 2.83203H4.19141V3.52734H2.62891V5.10547H1.93359V3.52734H0.375V2.83203H1.93359V1.23828H2.62891V2.83203ZM8.80469 6H4.9375V5.30859L6.41797 3.80859C6.70443 3.51693 6.9401 3.26562 7.125 3.05469C7.3099 2.84115 7.44661 2.63932 7.53516 2.44922C7.6263 2.25911 7.67188 2.05208 7.67188 1.82812C7.67188 1.55208 7.59245 1.34375 7.43359 1.20312C7.27474 1.0599 7.0651 0.988281 6.80469 0.988281C6.55729 0.988281 6.32812 1.03776 6.11719 1.13672C5.90885 1.23307 5.69271 1.37109 5.46875 1.55078L4.96484 0.945312C5.1237 0.809896 5.29297 0.686198 5.47266 0.574219C5.65495 0.46224 5.85807 0.373698 6.08203 0.308594C6.30599 0.240885 6.5612 0.207031 6.84766 0.207031C7.20964 0.207031 7.52214 0.272135 7.78516 0.402344C8.04818 0.529948 8.25 0.708333 8.39062 0.9375C8.53385 1.16667 8.60547 1.43359 8.60547 1.73828C8.60547 2.04557 8.54427 2.32943 8.42188 2.58984C8.29948 2.85026 8.125 3.10807 7.89844 3.36328C7.67188 3.61589 7.40234 3.89062 7.08984 4.1875L6.10156 5.15234V5.19531H8.80469V6Z" fill="#333333"/>
</svg>
