<svg width="16" height="16" viewBox="0 0 16 16" fill="none" xmlns="http://www.w3.org/2000/svg">
<circle cx="8" cy="8" r="7.5" stroke="#9873FF"/>
<path d="M5.62891 7.83203H7.19141V8.52734H5.62891V10.1055H4.93359V8.52734H3.375V7.83203H4.93359V6.23828H5.62891V7.83203ZM9.87891 7.42969C10.2461 7.42969 10.569 7.49609 10.8477 7.62891C11.1289 7.75911 11.3477 7.95182 11.5039 8.20703C11.6602 8.45964 11.7383 8.76953 11.7383 9.13672C11.7383 9.53776 11.6536 9.88411 11.4844 10.1758C11.3151 10.4648 11.0664 10.6875 10.7383 10.8438C10.4102 11 10.0104 11.0781 9.53906 11.0781C9.23958 11.0781 8.95964 11.0521 8.69922 11C8.44141 10.9479 8.21875 10.8698 8.03125 10.7656V9.9375C8.22656 10.0469 8.46094 10.1367 8.73438 10.207C9.00781 10.2747 9.26953 10.3086 9.51953 10.3086C9.78516 10.3086 10.013 10.2695 10.2031 10.1914C10.3932 10.1133 10.5391 9.99349 10.6406 9.83203C10.7448 9.67057 10.7969 9.46615 10.7969 9.21875C10.7969 8.89062 10.6914 8.63802 10.4805 8.46094C10.2721 8.28125 9.94531 8.19141 9.5 8.19141C9.34375 8.19141 9.17708 8.20573 9 8.23438C8.82552 8.26042 8.67969 8.28906 8.5625 8.32031L8.16016 8.08203L8.375 5.28906H11.3438V6.09766H9.18359L9.05859 7.51953C9.15234 7.4987 9.26432 7.47917 9.39453 7.46094C9.52474 7.4401 9.6862 7.42969 9.87891 7.42969Z" fill="#333333"/>
</svg>
